HIERARCHY
ROOT RootJoint
{
    OFFSET   0.000000   0.000000   0.000000
    CHANNELS 6 Xposition Yposition Zposition Xrotation Yrotation Zrotation
    JOINT pelvis_lowerback
    {
        OFFSET   0.000000   0.093605   0.000000
        CHANNELS 3 Xrotation Yrotation Zrotation
        JOINT lowerback_torso
        {
            OFFSET   0.000000   0.100000   0.000000
            CHANNELS 3 Xrotation Yrotation Zrotation
            JOINT torso_head
            {
                OFFSET   0.000000   0.282350   0.000000
                CHANNELS 3 Xrotation Yrotation Zrotation
                End Site
                {
                    OFFSET   0.000000   0.192650   0.000000
                }
            }
            JOINT rTorso_Clavicle
            {
                OFFSET  -0.001000   0.157500   0.000000
                CHANNELS 3 Xrotation Yrotation Zrotation
                JOINT rShoulder
                {
                    OFFSET  -0.117647   0.000000   0.000000
                    CHANNELS 3 Xrotation Yrotation Zrotation
                    JOINT rElbow
                    {
                        OFFSET  -0.245000   0.000000   0.000000
                        CHANNELS 3 Xrotation Yrotation Zrotation
                        JOINT rWrist
                        {
                            OFFSET  -0.240000   0.000000   0.000000
                            CHANNELS 3 Xrotation Yrotation Zrotation
                            End Site
                            {
                                OFFSET  -0.116353  -0.002500   0.000000
                            }
                        }
                    }
                }
            }
            JOINT lTorso_Clavicle
            {
                OFFSET   0.001000   0.157500   0.000000
                CHANNELS 3 Xrotation Yrotation Zrotation
                JOINT lShoulder
                {
                    OFFSET   0.117647   0.000000   0.000000
                    CHANNELS 3 Xrotation Yrotation Zrotation
                    JOINT lElbow
                    {
                        OFFSET   0.245000   0.000000   0.000000
                        CHANNELS 3 Xrotation Yrotation Zrotation
                        JOINT lWrist
                        {
                            OFFSET   0.240000   0.000000   0.000000
                            CHANNELS 3 Xrotation Yrotation Zrotation
                            End Site
                            {
                                OFFSET   0.116353  -0.002500   0.000000
                            }
                        }
                    }
                }
            }
        }
    }
    JOINT rHip
    {
        OFFSET  -0.100000  -0.051395   0.000000
        CHANNELS 3 Xrotation Yrotation Zrotation
        JOINT rKnee
        {
            OFFSET   0.000000  -0.410000   0.000000
            CHANNELS 3 Xrotation Yrotation Zrotation
            JOINT rAnkle
            {
                OFFSET   0.000000  -0.390000   0.000000
                CHANNELS 3 Xrotation Yrotation Zrotation
                JOINT rToeJoint
                {
                    OFFSET   0.000000  -0.050000   0.130000
                    CHANNELS 3 Xrotation Yrotation Zrotation
                    End Site
                    {
                        OFFSET  -0.010000   0.002000   0.060000
                    }
                }
            }
        }
    }
    JOINT lHip
    {
        OFFSET   0.100000  -0.051395   0.000000
        CHANNELS 3 Xrotation Yrotation Zrotation
        JOINT lKnee
        {
            OFFSET   0.000000  -0.410000   0.000000
            CHANNELS 3 Xrotation Yrotation Zrotation
            JOINT lAnkle
            {
                OFFSET   0.000000  -0.390000   0.000000
                CHANNELS 3 Xrotation Yrotation Zrotation
                JOINT lToeJoint
                {
                    OFFSET   0.000000  -0.050000   0.130000
                    CHANNELS 3 Xrotation Yrotation Zrotation
                    End Site
                    {
                        OFFSET   0.010000   0.002000   0.060000
                    }
                }
            }
        }
    }
}
MOTION
Frames: 15
Frame Time:   0.008333
 -2.376719   0.925631   3.975860   0.000000   0.000000   0.000000   0.000000   0.000000   0.000000   0.000000   0.000000   0.000000   0.000000   0.000000   0.000000   0.000000   0.000000   0.000000   0.000000   0.000000   0.000000   0.000000   0.000000   0.000000   0.000000   0.000000   0.000000   0.000000   0.000000   0.000000   0.000000   0.000000   0.000000   0.000000   0.000000   0.000000   0.000000   0.000000   0.000000   0.000000   0.000000   0.000000   0.000000   0.000000   0.000000   0.000000   0.000000   0.000000   0.000000   0.000000   0.000000   0.000000   0.000000   0.000000   0.000000   0.000000   0.000000   0.000000   0.000000   0.000000   0.000000   0.000000   0.000000
 -2.376708   0.923837   3.975995  -0.882806   0.097195   0.006224   1.098945   0.094694  -0.026960   0.217611  -0.101031   0.004156   0.109898   0.056356  -0.004258  -0.301404  -0.325854  -0.965405  -0.608420  -0.183398   0.144663  -0.002232   0.304003   0.001270  -0.026377   0.338306   1.151604  -0.466494   0.194420   0.929086  -0.758255   0.099872   0.003436  -0.004602  -0.573706  -0.003976   0.080406  -0.264581  -1.234351   0.704216  -0.126083  -0.245831   0.824402   0.001731  -0.000222  -1.135724  -0.337629  -0.223247   0.141656   0.000572  -0.000452   0.609715  -0.139661   0.239267   1.280695  -0.002738  -0.000437  -1.293972   0.280562   0.242019  -0.118240   0.000501  -0.000244
 -2.376712   0.923728   3.976182  -1.918223   0.248951   0.005191   2.288819   0.169583  -0.049149   0.620462  -0.226633   0.015728   0.292159   0.114057  -0.011351  -0.597280  -0.754356  -2.067446  -1.180543  -0.447695   0.099610  -0.004454   0.563245   0.001720  -0.074340   0.668476   2.041373  -0.914543   0.452004   2.016807  -1.471834   0.245453   0.203715  -0.009672  -1.106047  -0.005977   0.127879  -0.649296  -2.182723   1.403086  -0.384272  -0.258461   1.761094   0.001509  -0.001090  -1.978474  -0.767921  -0.246365   0.301337   0.000509  -0.001115   1.143653  -0.135711   0.262662   2.497345  -0.002336   0.001387  -2.360456   0.654358   0.279715  -0.162885   0.000423  -0.000403
 -2.376755   0.923543   3.976612  -2.954942   0.369242  -0.008164   3.418543   0.246437  -0.065699   1.061103  -0.344994   0.036826   0.498221   0.169355  -0.018926  -0.885405  -1.226584  -3.364685  -1.714555  -0.751563  -0.111381  -0.006541   0.783273   0.001922  -0.116555   0.889661   2.694900  -1.339334   0.753370   3.316640  -2.137445   0.428989   0.571208  -0.014748  -1.584929  -0.007067   0.175338  -0.967192  -2.868253   2.099695  -0.601676  -0.244979   2.735655   0.001209  -0.001741  -2.868419  -1.120641  -0.350675   0.422956   0.000515  -0.001376   1.674996  -0.163058   0.339933   3.762925  -0.002407   0.002241  -3.451957   0.942015   0.422776  -0.254509   0.000496  -0.000629
 -2.376836   0.923258   3.977252  -3.946640   0.432081  -0.029873   4.463421   0.329101  -0.081577   1.480844  -0.446992   0.062450   0.702898   0.221500  -0.026870  -1.168943  -1.708709  -4.757962  -2.215230  -1.068194  -0.443378  -0.008194   0.974125   0.002034  -0.153075   1.020776   3.078257  -1.746338   1.077672   4.724452  -2.760646   0.633434   1.058485  -0.018990  -2.016743  -0.007685   0.225538  -1.197622  -3.261948   2.762525  -0.818705  -0.224318   3.687490   0.000921  -0.002718  -3.693328  -1.444008  -0.455684   0.527921   0.000505  -0.001544   2.203614  -0.194668   0.529451   4.974204  -0.003543   0.002321  -4.492027   1.187865   0.595702  -0.341369   0.000647  -0.000715
 -2.376945   0.922884   3.978061  -4.883106   0.424597  -0.061679   5.421978   0.419919  -0.095332   1.864614  -0.529498   0.089463   0.897826   0.270439  -0.035328  -1.448249  -2.179427  -6.188500  -2.685780  -1.380147  -0.850903  -0.009361   1.143725   0.002099  -0.185293   1.094516   3.251258  -2.138303   1.408167   6.175105  -3.345358   0.844818   1.616499  -0.022117  -2.408855  -0.008019   0.278453  -1.357693  -3.431418   3.378429  -1.039941  -0.201356   4.611546   0.000642  -0.004066  -4.443855  -1.743124  -0.557028   0.623908   0.000488  -0.001684   2.733387  -0.238027   0.890933   6.103087  -0.006020   0.001758  -5.490752   1.393529   0.800614  -0.419162   0.000873  -0.000679
 -2.377004   0.922514   3.979029  -5.761151   0.338052  -0.063616   6.293805   0.518457  -0.132754   2.208888  -0.593264   0.100886   1.080808   0.316261  -0.045348  -1.722409  -2.626987  -7.611139  -3.128462  -1.677477  -1.298530  -0.010082   1.297667   0.002134  -0.214649   1.137610   3.275056  -2.516385   1.733576   7.618586  -3.894491   1.053800   2.207150  -0.024108  -2.767486  -0.008181   0.333136  -1.468562  -3.444020   3.946424  -1.262985  -0.228060   5.501149   0.000416  -0.005690  -5.133536  -2.019170  -0.656604   0.713490   0.000475  -0.001809   3.279352  -0.285125   1.392313   7.202027  -0.009686   0.000847  -6.412513   1.571289   1.018104  -0.492839   0.001158  -0.000574
 -2.376997   0.921962   3.979716  -6.337842   0.166953  -0.080700   6.935344   0.604572  -0.141022   2.336312  -0.643746   0.121289   1.314220   0.367120  -0.052427  -2.013785  -3.081527  -9.012442  -3.463101  -1.877825  -1.534312  -0.014981   1.775683   0.003269  -0.205477   0.982174   2.937430  -2.857210   2.089533   8.901783  -4.323193   1.197605   2.639095  -0.025400  -3.164181  -0.008471   0.392657  -1.440936  -3.071411   3.947812  -1.515620  -0.322844   6.824579   0.000695  -0.009586  -5.961109  -2.424653  -0.662233   0.647589   0.000335  -0.000966   3.489653  -0.274542   2.100652   8.325963  -0.014742   0.000317  -7.220424   1.766598   1.209474  -0.381742   0.000061  -0.000417
 -2.376916   0.921331   3.980503  -6.890805  -0.040056  -0.061124   7.522872   0.676818  -0.164815   2.428267  -0.692745   0.129305   1.525171   0.413363  -0.054734  -2.293083  -3.476477 -10.282997  -3.776078  -2.039453  -1.723147  -0.017920   2.239469   0.004186  -0.203748   0.939313   2.621324  -3.180372   2.399718  10.036945  -4.723204   1.318504   2.996336  -0.025416  -3.539599  -0.008703   0.449575  -1.428088  -2.729344   3.912306  -1.796473  -0.444040   8.158737   0.000421  -0.013455  -6.696740  -2.824489  -0.640081   0.579289   0.000249  -0.000241   3.724754  -0.258742   2.928811   9.378332  -0.019854   0.000125  -7.972789   1.949060   1.392218  -0.264821  -0.001019  -0.000318
 -2.376663   0.920672   3.981404  -7.423960  -0.247553   0.006003   8.057070   0.728141  -0.195946   2.501758  -0.751406   0.120276   1.717337   0.455661  -0.056860  -2.559836  -3.827661 -11.439760  -4.068664  -2.179923  -1.877687  -0.019282   2.677144   0.004842  -0.205043   0.939810   2.354071  -3.484491   2.664776  11.042250  -5.096284   1.417309   3.290080  -0.024624  -3.894719  -0.008843   0.501985  -1.439656  -2.466291   3.876061  -2.062585  -0.633091   9.453683   0.000207  -0.016216  -7.364991  -3.189349  -0.638067   0.520299   0.000164   0.000240   3.974449  -0.240402   3.831075  10.368137  -0.024516   0.000455  -8.674816   2.118596   1.566075  -0.153706  -0.001943  -0.000232
 -2.376204   0.920004   3.982405  -7.935189  -0.452907   0.119341   8.543013   0.762337  -0.231902   2.559777  -0.819626   0.098399   1.893093   0.494774  -0.058596  -2.814390  -4.145121 -12.496856  -4.342070  -2.306286  -2.004832  -0.019510   3.087650   0.005256  -0.207307   0.956868   2.131514  -3.769713   2.891978  11.936326  -5.443990   1.498249   3.531175  -0.023351  -4.230125  -0.008883   0.550496  -1.472828  -2.278052   3.841774  -2.315709  -0.890608  10.699593   0.000107  -0.018068  -7.978387  -3.526283  -0.645441   0.467906   0.000087   0.000557   4.229217  -0.218090   4.782917  11.297366  -0.028469   0.001159  -9.330120   2.276059   1.731120  -0.049546  -0.002693  -0.000152
 -2.375516   0.919337   3.983497  -8.424065  -0.656705   0.274625   8.986133   0.782092  -0.269142   2.604881  -0.895737   0.068080   2.054330   0.531069  -0.059784  -3.057120  -4.435194 -13.465817  -4.597504  -2.422425  -2.110013  -0.018953   3.471510   0.005461  -0.209811   0.979587   1.945826  -4.036810   3.088259  12.734984  -5.767955   1.565505   3.729185  -0.021824  -4.546119  -0.008823   0.595776  -1.521801  -2.152045   3.809492  -2.554665  -1.212780  11.893795   0.000132  -0.019203  -8.544381  -3.837214  -0.661054   0.420814   0.000019   0.000756   4.483028  -0.192161   5.766589  12.168202  -0.031602   0.002070  -9.941954   2.422201   1.887575   0.047478  -0.003272  -0.000079
 -2.374582   0.918676   3.984668  -8.891050  -0.859656   0.466627   9.391167   0.789594  -0.304111   2.639390  -0.977982   0.033583   2.202699   0.564784  -0.060296  -3.288420  -4.702299 -14.356064  -4.836119  -2.530759  -2.197382  -0.017874   3.829783   0.005493  -0.212248   1.002693   1.790154  -4.286737   3.259199  13.451632  -6.069776   1.622307   3.892187  -0.020198  -4.843165  -0.008672   0.638342  -1.581314  -2.075898   3.779145  -2.778331  -1.594420  13.035907   0.000275  -0.019786  -9.068361  -4.123817  -0.684024   0.378275  -0.000040   0.000871   4.731781  -0.163300   6.768292  12.983242  -0.033895   0.003056 -10.513300   2.557742   2.035704   0.137435  -0.003692  -0.000014
 -2.373693   0.918052   3.985790  -9.023526  -0.957609   0.463601   9.436678   0.743296  -0.149394   2.602553  -1.019707   0.093818   2.444712   0.639475  -0.114958  -3.311724  -5.075883 -15.149957  -4.977641  -2.698573  -2.201106  -0.017997   4.512803   0.005092  -0.195456   0.874853   1.508715  -4.343737   3.399238  14.039786  -6.348142   1.672055   3.788217  -0.018462  -5.201485  -0.008509   0.645147  -1.529388  -1.738485   3.626672  -2.801381  -1.692060  13.783300   0.000282  -0.016761  -9.633554  -4.388122  -0.887079   0.384667  -0.000018   0.000674   4.730578   0.037835   7.880056  13.292429  -0.029966   0.003620 -10.154223   2.630301   1.830087   0.337881  -0.004580   0.000415
 -2.372736   0.917451   3.986738  -9.086956  -1.020181   0.405618   9.471527   0.686859   0.041114   2.533775  -1.070234   0.187881   2.661977   0.712751  -0.157762  -3.337353  -5.427264 -15.828428  -5.107336  -2.855963  -2.157966  -0.016922   5.157895   0.004499  -0.175900   0.816763   1.300055  -4.392560   3.512493  14.506517  -6.605005   1.711901   3.624366  -0.016429  -5.539881  -0.008146   0.651109  -1.492501  -1.503401   3.465427  -2.807829  -1.721794  14.397313   0.000327  -0.013914 -10.183492  -4.628276  -1.082149   0.375291  -0.000034   0.000566   4.674494   0.228773   8.907331  13.499747  -0.025618   0.003655  -9.812281   2.698305   1.636992   0.586358  -0.005377   0.000920
